<svg xmlns="http://www.w3.org/2000/svg" xmlns:xlink="http://www.w3.org/1999/xlink" viewBox="0,0,255.99841,255.99841" width="48px" height="48px"><defs><linearGradient x1="14.572" y1="38.199" x2="43.188" y2="9.583" gradientUnits="userSpaceOnUse" id="color-1"><stop offset="0" stop-color="#0ee73f"></stop><stop offset="1" stop-color="#31373e"></stop></linearGradient></defs><g fill="none" fill-rule="nonzero" stroke="none" stroke-width="none" stroke-linecap="butt" stroke-linejoin="none" stroke-miterlimit="10" stroke-dasharray="" stroke-dashoffset="0" font-family="none" font-weight="none" font-size="none" text-anchor="none" style="mix-blend-mode: normal"><path transform="scale(5.33333,5.33333)" d="M14.975,38.821l-13.387,-13.387c-0.784,-0.784 -0.784,-2.054 0,-2.838l6.667,-6.667c0.784,-0.784 2.054,-0.784 2.838,0l8.12219,8.12219l17.69181,-17.69319c0.784,-0.784 2.054,-0.784 2.838,0l6.667,6.667c0.784,0.784 0.784,2.054 0,2.838l-25.778,25.779c-0.783,0.783 -2.054,0.783 -2.837,0l-2.8215,-2.8215z" id="strokeMainSVG" fill="#534444" stroke="#534444" stroke-width="3" stroke-linejoin="round"></path><g transform="scale(5.33333,5.33333)" stroke="none" stroke-width="1" stroke-linejoin="miter"><path d="M24.48,29.316l-9.505,9.505l-13.387,-13.387c-0.784,-0.784 -0.784,-2.054 0,-2.838l6.667,-6.667c0.784,-0.784 2.054,-0.784 2.838,0z" fill="#18bd2a"></path><path d="M17.797,41.642l-6.667,-6.667c-0.784,-0.784 -0.784,-2.054 0,-2.838l25.777,-25.779c0.784,-0.784 2.054,-0.784 2.838,0l6.667,6.667c0.784,0.784 0.784,2.054 0,2.838l-25.778,25.779c-0.783,0.783 -2.054,0.783 -2.837,0z" fill="url(#color-1)"></path></g></g><g fill="none" fill-rule="nonzero" stroke="none" stroke-width="none" stroke-linecap="butt" stroke-linejoin="none" stroke-miterlimit="10" stroke-dasharray="" stroke-dashoffset="0" font-family="none" font-weight="none" font-size="none" text-anchor="none" style="mix-blend-mode: normal"><path d="M41.39833,245.99333v-0.81c0.26667,-0.15333 0.55333,-0.28667 0.86,-0.4c0.30667,-0.11333 0.60333,-0.18667 0.89,-0.22v-12.07c-0.28667,-0.06 -0.58667,-0.14333 -0.9,-0.25c-0.31333,-0.10667 -0.59667,-0.23 -0.85,-0.37v-0.81h3.43c0.54,0 1.05333,-0.02 1.54,-0.06c0.48,-0.04667 1.03333,-0.07 1.66,-0.07c0.68667,0 1.35,0.05 1.99,0.15c0.64,0.1 1.20667,0.27667 1.7,0.53c0.5,0.26 0.9,0.62 1.2,1.08c0.29333,0.46667 0.44,1.06 0.44,1.78c0,0.46 -0.08,0.88333 -0.24,1.27c-0.16667,0.39333 -0.39333,0.74 -0.68,1.04c-0.29333,0.3 -0.63667,0.54667 -1.03,0.74c-0.38667,0.2 -0.81,0.34333 -1.27,0.43v0.09c0.46,0.05333 0.92,0.16 1.38,0.32c0.46,0.15333 0.87667,0.38 1.25,0.68c0.36667,0.3 0.66667,0.67333 0.9,1.12c0.24,0.44667 0.36,0.97667 0.36,1.59c0,0.76667 -0.17333,1.42667 -0.52,1.98c-0.34,0.55333 -0.79667,1.01 -1.37,1.37c-0.58,0.35333 -1.24,0.61333 -1.98,0.78c-0.73333,0.16 -1.5,0.24 -2.3,0.24c-0.3,0 -0.62667,-0.00667 -0.98,-0.02c-0.35333,-0.01333 -0.71,-0.02667 -1.07,-0.04c-0.35333,-0.01333 -0.69667,-0.03 -1.03,-0.05c-0.33333,-0.01333 -0.61333,-0.02 -0.84,-0.02zM47.83833,244.73333c0.89333,0 1.59667,-0.26667 2.11,-0.8c0.51333,-0.53333 0.77,-1.24 0.77,-2.12c0,-0.54 -0.08667,-0.98333 -0.26,-1.33c-0.16667,-0.34667 -0.4,-0.62333 -0.7,-0.83c-0.3,-0.20667 -0.65667,-0.35 -1.07,-0.43c-0.41333,-0.08 -0.86,-0.12 -1.34,-0.12h-1.13v5.49c0.2,0.04 0.41,0.07333 0.63,0.1c0.22,0.02667 0.55,0.04 0.99,0.04zM46.21833,237.72333h0.68c0.24,0 0.48333,-0.01333 0.73,-0.04c0.24,-0.02 0.46667,-0.04333 0.68,-0.07c0.55333,-0.22667 1,-0.58 1.34,-1.06c0.34,-0.47333 0.51,-1.01667 0.51,-1.63c0,-0.89333 -0.23333,-1.55 -0.7,-1.97c-0.46667,-0.42 -1.07,-0.63 -1.81,-0.63c-0.31333,0 -0.58333,0.00667 -0.81,0.02c-0.22667,0.01333 -0.43333,0.03333 -0.62,0.06zM63.91833,237.78333h-2.92c-0.16667,0.08667 -0.36667,0.23 -0.6,0.43c-0.22667,0.2 -0.43,0.52667 -0.61,0.98v5.46c0.28,0.02667 0.56333,0.08 0.85,0.16c0.28667,0.08 0.57,0.19667 0.85,0.35v0.83h-6.18v-0.83c0.25333,-0.14 0.49333,-0.24667 0.72,-0.32c0.22667,-0.07333 0.45333,-0.13667 0.68,-0.19v-7.81l-1.4,-0.17v-0.83c0.22667,-0.1 0.50667,-0.19333 0.84,-0.28c0.33333,-0.08667 0.67667,-0.16 1.03,-0.22c0.36,-0.06667 0.70667,-0.12 1.04,-0.16c0.33333,-0.04667 0.61333,-0.08333 0.84,-0.11h0.73v2.84h0.08c0.11333,-0.31333 0.28,-0.64 0.5,-0.98c0.22,-0.34667 0.48,-0.66 0.78,-0.94c0.3,-0.28667 0.62667,-0.51333 0.98,-0.68c0.36,-0.17333 0.73,-0.25333 1.11,-0.24c0.16,0.2 0.29667,0.48 0.41,0.84c0.11333,0.36667 0.20333,0.71333 0.27,1.04zM65.51833,241.77333c0,-0.89333 0.02333,-1.72667 0.07,-2.5c0.04,-0.76667 0.06,-1.57667 0.06,-2.43l-1.41,-0.17v-0.83c0.23333,-0.08667 0.51667,-0.17333 0.85,-0.26c0.33333,-0.08667 0.67667,-0.16 1.03,-0.22c0.36,-0.06667 0.70667,-0.12333 1.04,-0.17c0.33333,-0.05333 0.61333,-0.09333 0.84,-0.12h0.72c0,1.06667 -0.02,2.11667 -0.06,3.15c-0.04,1.02667 -0.06,2.04 -0.06,3.04c0,1.16667 0.11667,2.00333 0.35,2.51c0.23333,0.51333 0.67,0.77 1.31,0.77c0.44,0 0.85,-0.16667 1.23,-0.5c0.37333,-0.33333 0.68333,-0.87 0.93,-1.61v-5.59l-1.39,-0.17v-0.83c0.21333,-0.08667 0.48,-0.17333 0.8,-0.26c0.32,-0.08667 0.65333,-0.16 1,-0.22c0.34667,-0.06667 0.69333,-0.12333 1.04,-0.17c0.34,-0.05333 0.63667,-0.09333 0.89,-0.12h0.73v9.41l1.41,0.17v0.75c-0.2,0.08 -0.45,0.16333 -0.75,0.25c-0.3,0.08667 -0.61333,0.17 -0.94,0.25c-0.32667,0.07333 -0.65,0.13667 -0.97,0.19c-0.32,0.04667 -0.60667,0.08667 -0.86,0.12h-0.73l-0.15,-2.54h-0.08c-0.07333,0.3 -0.20333,0.6 -0.39,0.9c-0.18667,0.30667 -0.42333,0.58667 -0.71,0.84c-0.29333,0.24667 -0.64,0.44667 -1.04,0.6c-0.4,0.16 -0.84,0.24 -1.32,0.24c-0.54,0 -1.02,-0.06667 -1.44,-0.2c-0.42,-0.14 -0.78,-0.38 -1.08,-0.72c-0.3,-0.34 -0.52667,-0.79667 -0.68,-1.37c-0.16,-0.58 -0.24,-1.31 -0.24,-2.19zM77.27833,250.17333v-1.7h8.75v1.7zM96.47833,231.06333h5.29v0.81c-0.27333,0.21333 -0.57333,0.40333 -0.9,0.57c-0.32667,0.16 -0.63,0.28333 -0.91,0.37v13.44h-1.82l-7.53,-10.88l-0.85,-1.64h-0.06l0.19,1.7v8.9c0.28,0.07333 0.59667,0.19 0.95,0.35c0.34667,0.16667 0.64,0.33333 0.88,0.5v0.81h-5.27v-0.81c0.26,-0.16667 0.54333,-0.32667 0.85,-0.48c0.3,-0.14667 0.61333,-0.27 0.94,-0.37v-11.65c-0.28,-0.11333 -0.56333,-0.24 -0.85,-0.38c-0.28667,-0.14667 -0.54333,-0.29667 -0.77,-0.45v-0.79h4.61l6.12,8.87l0.99,1.84h0.08l-0.11,-1.84v-7.12c-0.34,-0.11333 -0.67,-0.25333 -0.99,-0.42c-0.32,-0.16 -0.6,-0.33333 -0.84,-0.52zM102.85833,240.66333c0,-0.86667 0.13,-1.64667 0.39,-2.34c0.26667,-0.68667 0.64333,-1.27333 1.13,-1.76c0.49333,-0.48 1.08667,-0.85 1.78,-1.11c0.7,-0.25333 1.49,-0.38 2.37,-0.38c1,0 1.85667,0.14 2.57,0.42c0.72,0.27333 1.31,0.65667 1.77,1.15c0.46667,0.48667 0.80667,1.07667 1.02,1.77c0.21333,0.68667 0.32,1.43667 0.32,2.25c0,0.86667 -0.13,1.64667 -0.39,2.34c-0.25333,0.68667 -0.62667,1.27333 -1.12,1.76c-0.48667,0.48 -1.08333,0.85 -1.79,1.11c-0.7,0.25333 -1.49333,0.38 -2.38,0.38c-0.96667,0 -1.80333,-0.14 -2.51,-0.42c-0.71333,-0.27333 -1.30667,-0.65667 -1.78,-1.15c-0.46667,-0.48667 -0.81333,-1.07667 -1.04,-1.77c-0.22667,-0.68667 -0.34,-1.43667 -0.34,-2.25zM106.15833,240.66333c0,0.64 0.04,1.22667 0.12,1.76c0.08,0.53333 0.22,0.98333 0.42,1.35c0.2,0.37333 0.47,0.66333 0.81,0.87c0.34,0.20667 0.78,0.31 1.32,0.31c0.31333,0 0.59667,-0.07667 0.85,-0.23c0.26,-0.14667 0.48333,-0.38667 0.67,-0.72c0.18,-0.33333 0.31667,-0.77333 0.41,-1.32c0.09333,-0.55333 0.14,-1.22667 0.14,-2.02c0,-0.65333 -0.04,-1.24333 -0.12,-1.77c-0.07333,-0.52667 -0.20667,-0.97333 -0.4,-1.34c-0.19333,-0.37333 -0.45333,-0.66333 -0.78,-0.87c-0.32667,-0.20667 -0.74,-0.31 -1.24,-0.31c-0.36667,0 -0.68667,0.07667 -0.96,0.23c-0.26667,0.14667 -0.49333,0.38667 -0.68,0.72c-0.18667,0.33333 -0.32667,0.77333 -0.42,1.32c-0.09333,0.55333 -0.14,1.22667 -0.14,2.02zM131.39833,245.99333h-7.34v-0.81c0.28667,-0.11333 0.61,-0.23 0.97,-0.35c0.36667,-0.12 0.73333,-0.21 1.1,-0.27v-12.11h-2.47l-1.37,3.64h-0.87c-0.06,-0.28 -0.11667,-0.64 -0.17,-1.08c-0.06,-0.44 -0.11,-0.89667 -0.15,-1.37c-0.04667,-0.46667 -0.08333,-0.93333 -0.11,-1.4c-0.02667,-0.46 -0.04,-0.85333 -0.04,-1.18h13.59c0,0.34 -0.01333,0.73667 -0.04,1.19c-0.03333,0.46 -0.07,0.92333 -0.11,1.39c-0.04667,0.47333 -0.09667,0.92667 -0.15,1.36c-0.06,0.43333 -0.11667,0.79667 -0.17,1.09h-0.9l-1.36,-3.64h-2.48v12.11c0.37333,0.07333 0.74,0.16 1.1,0.26c0.36667,0.1 0.69,0.22 0.97,0.36zM134.34833,240.66333c0,-0.86667 0.13,-1.64667 0.39,-2.34c0.26667,-0.68667 0.64333,-1.27333 1.13,-1.76c0.49333,-0.48 1.08667,-0.85 1.78,-1.11c0.7,-0.25333 1.49,-0.38 2.37,-0.38c0.99333,0 1.85,0.14 2.57,0.42c0.72,0.27333 1.31,0.65667 1.77,1.15c0.46667,0.48667 0.80667,1.07667 1.02,1.77c0.21333,0.68667 0.32,1.43667 0.32,2.25c0,0.86667 -0.13,1.64667 -0.39,2.34c-0.25333,0.68667 -0.62667,1.27333 -1.12,1.76c-0.48667,0.48 -1.08333,0.85 -1.79,1.11c-0.70667,0.25333 -1.5,0.38 -2.38,0.38c-0.96667,0 -1.80667,-0.14 -2.52,-0.42c-0.70667,-0.27333 -1.29667,-0.65667 -1.77,-1.15c-0.46667,-0.48667 -0.81333,-1.07667 -1.04,-1.77c-0.22667,-0.68667 -0.34,-1.43667 -0.34,-2.25zM137.64833,240.66333c0,0.64 0.04,1.22667 0.12,1.76c0.08,0.53333 0.22,0.98333 0.42,1.35c0.19333,0.37333 0.46333,0.66333 0.81,0.87c0.34,0.20667 0.78,0.31 1.32,0.31c0.31333,0 0.59667,-0.07667 0.85,-0.23c0.26,-0.14667 0.48,-0.38667 0.66,-0.72c0.18667,-0.33333 0.32667,-0.77333 0.42,-1.32c0.09333,-0.55333 0.14,-1.22667 0.14,-2.02c0,-0.65333 -0.04,-1.24333 -0.12,-1.77c-0.08,-0.52667 -0.21333,-0.97333 -0.4,-1.34c-0.19333,-0.37333 -0.45333,-0.66333 -0.78,-0.87c-0.32667,-0.20667 -0.74,-0.31 -1.24,-0.31c-0.36667,0 -0.68667,0.07667 -0.96,0.23c-0.27333,0.14667 -0.5,0.38667 -0.68,0.72c-0.18667,0.33333 -0.32667,0.77333 -0.42,1.32c-0.09333,0.55333 -0.14,1.22667 -0.14,2.02zM146.77833,245.99333v-0.81c0.24667,-0.14 0.51667,-0.26333 0.81,-0.37c0.3,-0.10667 0.61333,-0.19 0.94,-0.25v-12.07c-0.32667,-0.07333 -0.64333,-0.16333 -0.95,-0.27c-0.30667,-0.10667 -0.57333,-0.22333 -0.8,-0.35v-0.81h2.48c0.24,0 0.53667,-0.00667 0.89,-0.02c0.36,-0.01333 0.73,-0.03 1.11,-0.05c0.38667,-0.02667 0.76,-0.05 1.12,-0.07c0.36667,-0.02 0.67667,-0.03 0.93,-0.03c1.24,0 2.34667,0.16333 3.32,0.49c0.97333,0.32667 1.79667,0.80333 2.47,1.43c0.68,0.62667 1.2,1.4 1.56,2.32c0.36,0.92667 0.54,1.99333 0.54,3.2c0,1.18667 -0.17,2.26333 -0.51,3.23c-0.34,0.96667 -0.85,1.79 -1.53,2.47c-0.68667,0.68 -1.55333,1.21 -2.6,1.59c-1.04,0.38 -2.26667,0.57 -3.68,0.57c-0.18,0 -0.42667,-0.01333 -0.74,-0.04c-0.31333,-0.02 -0.64667,-0.04 -1,-0.06c-0.36,-0.02 -0.71667,-0.04 -1.07,-0.06c-0.35333,-0.02667 -0.66667,-0.04 -0.94,-0.04zM153.02833,232.28333c-0.25333,0 -0.50667,0.00667 -0.76,0.02c-0.26,0.01333 -0.48333,0.03333 -0.67,0.06v12.35c0.06,0.01333 0.16,0.02667 0.3,0.04c0.14667,0.00667 0.29333,0.01333 0.44,0.02c0.14667,0.00667 0.29333,0.01333 0.44,0.02c0.14,0.00667 0.24667,0.01 0.32,0.01c0.82667,0 1.52667,-0.17 2.1,-0.51c0.57333,-0.34667 1.04667,-0.81 1.42,-1.39c0.36667,-0.58 0.63667,-1.26333 0.81,-2.05c0.16667,-0.78 0.25,-1.61 0.25,-2.49c0,-0.78667 -0.08667,-1.54333 -0.26,-2.27c-0.18,-0.72 -0.45333,-1.36667 -0.82,-1.94c-0.37333,-0.56667 -0.85333,-1.02 -1.44,-1.36c-0.59333,-0.34 -1.30333,-0.51 -2.13,-0.51zM162.71833,240.66333c0,-0.86667 0.13,-1.64667 0.39,-2.34c0.26667,-0.68667 0.64333,-1.27333 1.13,-1.76c0.49333,-0.48 1.09,-0.85 1.79,-1.11c0.69333,-0.25333 1.48,-0.38 2.36,-0.38c1,0 1.85667,0.14 2.57,0.42c0.72,0.27333 1.31333,0.65667 1.78,1.15c0.46,0.48667 0.79667,1.07667 1.01,1.77c0.21333,0.68667 0.32,1.43667 0.32,2.25c0,0.86667 -0.13,1.64667 -0.39,2.34c-0.25333,0.68667 -0.62667,1.27333 -1.12,1.76c-0.48667,0.48 -1.08333,0.85 -1.79,1.11c-0.7,0.25333 -1.49333,0.38 -2.38,0.38c-0.96667,0 -1.80333,-0.14 -2.51,-0.42c-0.71333,-0.27333 -1.30333,-0.65667 -1.77,-1.15c-0.47333,-0.48667 -0.82333,-1.07667 -1.05,-1.77c-0.22667,-0.68667 -0.34,-1.43667 -0.34,-2.25zM166.02833,240.66333c0,0.64 0.03667,1.22667 0.11,1.76c0.08,0.53333 0.22,0.98333 0.42,1.35c0.2,0.37333 0.47,0.66333 0.81,0.87c0.34,0.20667 0.78,0.31 1.32,0.31c0.31333,0 0.6,-0.07667 0.86,-0.23c0.25333,-0.14667 0.47333,-0.38667 0.66,-0.72c0.18,-0.33333 0.31667,-0.77333 0.41,-1.32c0.09333,-0.55333 0.14,-1.22667 0.14,-2.02c0,-0.65333 -0.04,-1.24333 -0.12,-1.77c-0.07333,-0.52667 -0.20667,-0.97333 -0.4,-1.34c-0.19333,-0.37333 -0.45333,-0.66333 -0.78,-0.87c-0.32667,-0.20667 -0.74,-0.31 -1.24,-0.31c-0.36667,0 -0.68667,0.07667 -0.96,0.23c-0.26667,0.14667 -0.49333,0.38667 -0.68,0.72c-0.18667,0.33333 -0.32667,0.77333 -0.42,1.32c-0.08667,0.55333 -0.13,1.22667 -0.13,2.02z" id="strokeMainSVG" fill="#534444" stroke="#534444" stroke-width="5.33333" stroke-linejoin="round"></path><g fill="#35c81d" stroke="none" stroke-width="1" stroke-linejoin="miter"><path d="M43.93833,245.99333h-2.54v-0.81c0.26667,-0.15333 0.55333,-0.28667 0.86,-0.4c0.30667,-0.11333 0.60333,-0.18667 0.89,-0.22v0v-12.07c-0.28667,-0.06 -0.58667,-0.14333 -0.9,-0.25c-0.31333,-0.10667 -0.59667,-0.23 -0.85,-0.37v0v-0.81h3.43c0.54,0 1.05333,-0.02 1.54,-0.06c0.48,-0.04667 1.03333,-0.07 1.66,-0.07v0c0.68667,0 1.35,0.05 1.99,0.15c0.64,0.1 1.20667,0.27667 1.7,0.53c0.5,0.26 0.9,0.62 1.2,1.08c0.29333,0.46667 0.44,1.06 0.44,1.78v0c0,0.46 -0.08,0.88333 -0.24,1.27c-0.16667,0.39333 -0.39333,0.74 -0.68,1.04c-0.29333,0.3 -0.63667,0.54667 -1.03,0.74c-0.38667,0.2 -0.81,0.34333 -1.27,0.43v0v0.09c0.46,0.05333 0.92,0.16 1.38,0.32c0.46,0.15333 0.87667,0.38 1.25,0.68c0.36667,0.3 0.66667,0.67333 0.9,1.12c0.24,0.44667 0.36,0.97667 0.36,1.59v0c0,0.76667 -0.17333,1.42667 -0.52,1.98c-0.34,0.55333 -0.79667,1.01 -1.37,1.37c-0.58,0.35333 -1.24,0.61333 -1.98,0.78c-0.73333,0.16 -1.5,0.24 -2.3,0.24v0c-0.3,0 -0.62667,-0.00667 -0.98,-0.02c-0.35333,-0.01333 -0.71,-0.02667 -1.07,-0.04c-0.35333,-0.01333 -0.69667,-0.03 -1.03,-0.05c-0.33333,-0.01333 -0.61333,-0.02 -0.84,-0.02zM47.83833,244.73333v0c0.89333,0 1.59667,-0.26667 2.11,-0.8c0.51333,-0.53333 0.77,-1.24 0.77,-2.12v0c0,-0.54 -0.08667,-0.98333 -0.26,-1.33c-0.16667,-0.34667 -0.4,-0.62333 -0.7,-0.83c-0.3,-0.20667 -0.65667,-0.35 -1.07,-0.43c-0.41333,-0.08 -0.86,-0.12 -1.34,-0.12v0h-1.13v5.49c0.2,0.04 0.41,0.07333 0.63,0.1c0.22,0.02667 0.55,0.04 0.99,0.04zM46.21833,237.72333h0.68c0.24,0 0.48333,-0.01333 0.73,-0.04c0.24,-0.02 0.46667,-0.04333 0.68,-0.07v0c0.55333,-0.22667 1,-0.58 1.34,-1.06c0.34,-0.47333 0.51,-1.01667 0.51,-1.63v0c0,-0.89333 -0.23333,-1.55 -0.7,-1.97c-0.46667,-0.42 -1.07,-0.63 -1.81,-0.63v0c-0.31333,0 -0.58333,0.00667 -0.81,0.02c-0.22667,0.01333 -0.43333,0.03333 -0.62,0.06v0zM63.91833,237.78333h-2.92c-0.16667,0.08667 -0.36667,0.23 -0.6,0.43c-0.22667,0.2 -0.43,0.52667 -0.61,0.98v0v5.46c0.28,0.02667 0.56333,0.08 0.85,0.16c0.28667,0.08 0.57,0.19667 0.85,0.35v0v0.83h-6.18v-0.83c0.25333,-0.14 0.49333,-0.24667 0.72,-0.32c0.22667,-0.07333 0.45333,-0.13667 0.68,-0.19v0v-7.81l-1.4,-0.17v-0.83c0.22667,-0.1 0.50667,-0.19333 0.84,-0.28c0.33333,-0.08667 0.67667,-0.16 1.03,-0.22c0.36,-0.06667 0.70667,-0.12 1.04,-0.16c0.33333,-0.04667 0.61333,-0.08333 0.84,-0.11v0h0.73v2.84h0.08c0.11333,-0.31333 0.28,-0.64 0.5,-0.98c0.22,-0.34667 0.48,-0.66 0.78,-0.94c0.3,-0.28667 0.62667,-0.51333 0.98,-0.68c0.36,-0.17333 0.73,-0.25333 1.11,-0.24v0c0.16,0.2 0.29667,0.48 0.41,0.84c0.11333,0.36667 0.20333,0.71333 0.27,1.04v0zM65.51833,241.77333v0c0,-0.89333 0.02333,-1.72667 0.07,-2.5c0.04,-0.76667 0.06,-1.57667 0.06,-2.43v0l-1.41,-0.17v-0.83c0.23333,-0.08667 0.51667,-0.17333 0.85,-0.26c0.33333,-0.08667 0.67667,-0.16 1.03,-0.22c0.36,-0.06667 0.70667,-0.12333 1.04,-0.17c0.33333,-0.05333 0.61333,-0.09333 0.84,-0.12v0h0.72c0,1.06667 -0.02,2.11667 -0.06,3.15c-0.04,1.02667 -0.06,2.04 -0.06,3.04v0c0,1.16667 0.11667,2.00333 0.35,2.51c0.23333,0.51333 0.67,0.77 1.31,0.77v0c0.44,0 0.85,-0.16667 1.23,-0.5c0.37333,-0.33333 0.68333,-0.87 0.93,-1.61v0v-5.59l-1.39,-0.17v-0.83c0.21333,-0.08667 0.48,-0.17333 0.8,-0.26c0.32,-0.08667 0.65333,-0.16 1,-0.22c0.34667,-0.06667 0.69333,-0.12333 1.04,-0.17c0.34,-0.05333 0.63667,-0.09333 0.89,-0.12v0h0.73v9.41l1.41,0.17v0.75c-0.2,0.08 -0.45,0.16333 -0.75,0.25c-0.3,0.08667 -0.61333,0.17 -0.94,0.25c-0.32667,0.07333 -0.65,0.13667 -0.97,0.19c-0.32,0.04667 -0.60667,0.08667 -0.86,0.12v0h-0.73l-0.15,-2.54h-0.08c-0.07333,0.3 -0.20333,0.6 -0.39,0.9c-0.18667,0.30667 -0.42333,0.58667 -0.71,0.84c-0.29333,0.24667 -0.64,0.44667 -1.04,0.6c-0.4,0.16 -0.84,0.24 -1.32,0.24v0c-0.54,0 -1.02,-0.06667 -1.44,-0.2c-0.42,-0.14 -0.78,-0.38 -1.08,-0.72c-0.3,-0.34 -0.52667,-0.79667 -0.68,-1.37c-0.16,-0.58 -0.24,-1.31 -0.24,-2.19zM77.27833,250.17333v-1.7h8.75v1.7zM96.47833,231.87333v-0.81h5.29v0.81c-0.27333,0.21333 -0.57333,0.40333 -0.9,0.57c-0.32667,0.16 -0.63,0.28333 -0.91,0.37v0v13.44h-1.82l-7.53,-10.88l-0.85,-1.64h-0.06l0.19,1.7v8.9c0.28,0.07333 0.59667,0.19 0.95,0.35c0.34667,0.16667 0.64,0.33333 0.88,0.5v0v0.81h-5.27v-0.81c0.26,-0.16667 0.54333,-0.32667 0.85,-0.48c0.3,-0.14667 0.61333,-0.27 0.94,-0.37v0v-11.65c-0.28,-0.11333 -0.56333,-0.24 -0.85,-0.38c-0.28667,-0.14667 -0.54333,-0.29667 -0.77,-0.45v0v-0.79h4.61l6.12,8.87l0.99,1.84h0.08l-0.11,-1.84v-7.12c-0.34,-0.11333 -0.67,-0.25333 -0.99,-0.42c-0.32,-0.16 -0.6,-0.33333 -0.84,-0.52zM102.85833,240.66333v0c0,-0.86667 0.13,-1.64667 0.39,-2.34c0.26667,-0.68667 0.64333,-1.27333 1.13,-1.76c0.49333,-0.48 1.08667,-0.85 1.78,-1.11c0.7,-0.25333 1.49,-0.38 2.37,-0.38v0c1,0 1.85667,0.14 2.57,0.42c0.72,0.27333 1.31,0.65667 1.77,1.15c0.46667,0.48667 0.80667,1.07667 1.02,1.77c0.21333,0.68667 0.32,1.43667 0.32,2.25v0c0,0.86667 -0.13,1.64667 -0.39,2.34c-0.25333,0.68667 -0.62667,1.27333 -1.12,1.76c-0.48667,0.48 -1.08333,0.85 -1.79,1.11c-0.7,0.25333 -1.49333,0.38 -2.38,0.38v0c-0.96667,0 -1.80333,-0.14 -2.51,-0.42c-0.71333,-0.27333 -1.30667,-0.65667 -1.78,-1.15c-0.46667,-0.48667 -0.81333,-1.07667 -1.04,-1.77c-0.22667,-0.68667 -0.34,-1.43667 -0.34,-2.25zM106.15833,240.66333v0c0,0.64 0.04,1.22667 0.12,1.76c0.08,0.53333 0.22,0.98333 0.42,1.35c0.2,0.37333 0.47,0.66333 0.81,0.87c0.34,0.20667 0.78,0.31 1.32,0.31v0c0.31333,0 0.59667,-0.07667 0.85,-0.23c0.26,-0.14667 0.48333,-0.38667 0.67,-0.72c0.18,-0.33333 0.31667,-0.77333 0.41,-1.32c0.09333,-0.55333 0.14,-1.22667 0.14,-2.02v0c0,-0.65333 -0.04,-1.24333 -0.12,-1.77c-0.07333,-0.52667 -0.20667,-0.97333 -0.4,-1.34c-0.19333,-0.37333 -0.45333,-0.66333 -0.78,-0.87c-0.32667,-0.20667 -0.74,-0.31 -1.24,-0.31v0c-0.36667,0 -0.68667,0.07667 -0.96,0.23c-0.26667,0.14667 -0.49333,0.38667 -0.68,0.72c-0.18667,0.33333 -0.32667,0.77333 -0.42,1.32c-0.09333,0.55333 -0.14,1.22667 -0.14,2.02zM131.39833,245.18333v0.81h-7.34v-0.81c0.28667,-0.11333 0.61,-0.23 0.97,-0.35c0.36667,-0.12 0.73333,-0.21 1.1,-0.27v0v-12.11h-2.47l-1.37,3.64h-0.87c-0.06,-0.28 -0.11667,-0.64 -0.17,-1.08c-0.06,-0.44 -0.11,-0.89667 -0.15,-1.37c-0.04667,-0.46667 -0.08333,-0.93333 -0.11,-1.4c-0.02667,-0.46 -0.04,-0.85333 -0.04,-1.18v0h13.59c0,0.34 -0.01333,0.73667 -0.04,1.19c-0.03333,0.46 -0.07,0.92333 -0.11,1.39c-0.04667,0.47333 -0.09667,0.92667 -0.15,1.36c-0.06,0.43333 -0.11667,0.79667 -0.17,1.09v0h-0.9l-1.36,-3.64h-2.48v12.11c0.37333,0.07333 0.74,0.16 1.1,0.26c0.36667,0.1 0.69,0.22 0.97,0.36zM134.34833,240.66333v0c0,-0.86667 0.13,-1.64667 0.39,-2.34c0.26667,-0.68667 0.64333,-1.27333 1.13,-1.76c0.49333,-0.48 1.08667,-0.85 1.78,-1.11c0.7,-0.25333 1.49,-0.38 2.37,-0.38v0c0.99333,0 1.85,0.14 2.57,0.42c0.72,0.27333 1.31,0.65667 1.77,1.15c0.46667,0.48667 0.80667,1.07667 1.02,1.77c0.21333,0.68667 0.32,1.43667 0.32,2.25v0c0,0.86667 -0.13,1.64667 -0.39,2.34c-0.25333,0.68667 -0.62667,1.27333 -1.12,1.76c-0.48667,0.48 -1.08333,0.85 -1.79,1.11c-0.70667,0.25333 -1.5,0.38 -2.38,0.38v0c-0.96667,0 -1.80667,-0.14 -2.52,-0.42c-0.70667,-0.27333 -1.29667,-0.65667 -1.77,-1.15c-0.46667,-0.48667 -0.81333,-1.07667 -1.04,-1.77c-0.22667,-0.68667 -0.34,-1.43667 -0.34,-2.25zM137.64833,240.66333v0c0,0.64 0.04,1.22667 0.12,1.76c0.08,0.53333 0.22,0.98333 0.42,1.35c0.19333,0.37333 0.46333,0.66333 0.81,0.87c0.34,0.20667 0.78,0.31 1.32,0.31v0c0.31333,0 0.59667,-0.07667 0.85,-0.23c0.26,-0.14667 0.48,-0.38667 0.66,-0.72c0.18667,-0.33333 0.32667,-0.77333 0.42,-1.32c0.09333,-0.55333 0.14,-1.22667 0.14,-2.02v0c0,-0.65333 -0.04,-1.24333 -0.12,-1.77c-0.08,-0.52667 -0.21333,-0.97333 -0.4,-1.34c-0.19333,-0.37333 -0.45333,-0.66333 -0.78,-0.87c-0.32667,-0.20667 -0.74,-0.31 -1.24,-0.31v0c-0.36667,0 -0.68667,0.07667 -0.96,0.23c-0.27333,0.14667 -0.5,0.38667 -0.68,0.72c-0.18667,0.33333 -0.32667,0.77333 -0.42,1.32c-0.09333,0.55333 -0.14,1.22667 -0.14,2.02zM149.12833,245.99333h-2.35v-0.81c0.24667,-0.14 0.51667,-0.26333 0.81,-0.37c0.3,-0.10667 0.61333,-0.19 0.94,-0.25v0v-12.07c-0.32667,-0.07333 -0.64333,-0.16333 -0.95,-0.27c-0.30667,-0.10667 -0.57333,-0.22333 -0.8,-0.35v0v-0.81h2.48c0.24,0 0.53667,-0.00667 0.89,-0.02c0.36,-0.01333 0.73,-0.03 1.11,-0.05c0.38667,-0.02667 0.76,-0.05 1.12,-0.07c0.36667,-0.02 0.67667,-0.03 0.93,-0.03v0c1.24,0 2.34667,0.16333 3.32,0.49c0.97333,0.32667 1.79667,0.80333 2.47,1.43c0.68,0.62667 1.2,1.4 1.56,2.32c0.36,0.92667 0.54,1.99333 0.54,3.2v0c0,1.18667 -0.17,2.26333 -0.51,3.23c-0.34,0.96667 -0.85,1.79 -1.53,2.47c-0.68667,0.68 -1.55333,1.21 -2.6,1.59c-1.04,0.38 -2.26667,0.57 -3.68,0.57v0c-0.18,0 -0.42667,-0.01333 -0.74,-0.04c-0.31333,-0.02 -0.64667,-0.04 -1,-0.06c-0.36,-0.02 -0.71667,-0.04 -1.07,-0.06c-0.35333,-0.02667 -0.66667,-0.04 -0.94,-0.04zM153.02833,232.28333v0c-0.25333,0 -0.50667,0.00667 -0.76,0.02c-0.26,0.01333 -0.48333,0.03333 -0.67,0.06v0v12.35c0.06,0.01333 0.16,0.02667 0.3,0.04c0.14667,0.00667 0.29333,0.01333 0.44,0.02c0.14667,0.00667 0.29333,0.01333 0.44,0.02c0.14,0.00667 0.24667,0.01 0.32,0.01v0c0.82667,0 1.52667,-0.17 2.1,-0.51c0.57333,-0.34667 1.04667,-0.81 1.42,-1.39c0.36667,-0.58 0.63667,-1.26333 0.81,-2.05c0.16667,-0.78 0.25,-1.61 0.25,-2.49v0c0,-0.78667 -0.08667,-1.54333 -0.26,-2.27c-0.18,-0.72 -0.45333,-1.36667 -0.82,-1.94c-0.37333,-0.56667 -0.85333,-1.02 -1.44,-1.36c-0.59333,-0.34 -1.30333,-0.51 -2.13,-0.51zM162.71833,240.66333v0c0,-0.86667 0.13,-1.64667 0.39,-2.34c0.26667,-0.68667 0.64333,-1.27333 1.13,-1.76c0.49333,-0.48 1.09,-0.85 1.79,-1.11c0.69333,-0.25333 1.48,-0.38 2.36,-0.38v0c1,0 1.85667,0.14 2.57,0.42c0.72,0.27333 1.31333,0.65667 1.78,1.15c0.46,0.48667 0.79667,1.07667 1.01,1.77c0.21333,0.68667 0.32,1.43667 0.32,2.25v0c0,0.86667 -0.13,1.64667 -0.39,2.34c-0.25333,0.68667 -0.62667,1.27333 -1.12,1.76c-0.48667,0.48 -1.08333,0.85 -1.79,1.11c-0.7,0.25333 -1.49333,0.38 -2.38,0.38v0c-0.96667,0 -1.80333,-0.14 -2.51,-0.42c-0.71333,-0.27333 -1.30333,-0.65667 -1.77,-1.15c-0.47333,-0.48667 -0.82333,-1.07667 -1.05,-1.77c-0.22667,-0.68667 -0.34,-1.43667 -0.34,-2.25zM166.02833,240.66333v0c0,0.64 0.03667,1.22667 0.11,1.76c0.08,0.53333 0.22,0.98333 0.42,1.35c0.2,0.37333 0.47,0.66333 0.81,0.87c0.34,0.20667 0.78,0.31 1.32,0.31v0c0.31333,0 0.6,-0.07667 0.86,-0.23c0.25333,-0.14667 0.47333,-0.38667 0.66,-0.72c0.18,-0.33333 0.31667,-0.77333 0.41,-1.32c0.09333,-0.55333 0.14,-1.22667 0.14,-2.02v0c0,-0.65333 -0.04,-1.24333 -0.12,-1.77c-0.07333,-0.52667 -0.20667,-0.97333 -0.4,-1.34c-0.19333,-0.37333 -0.45333,-0.66333 -0.78,-0.87c-0.32667,-0.20667 -0.74,-0.31 -1.24,-0.31v0c-0.36667,0 -0.68667,0.07667 -0.96,0.23c-0.26667,0.14667 -0.49333,0.38667 -0.68,0.72c-0.18667,0.33333 -0.32667,0.77333 -0.42,1.32c-0.08667,0.55333 -0.13,1.22667 -0.13,2.02z"></path></g></g></svg>